HIERARCHY
ROOT Hips
{
	OFFSET 0.000000 0.000000 0.000000 
	CHANNELS 6 Xposition Yposition Zposition Yrotation Zrotation Xrotation 
	JOINT Lumbar
	{
		OFFSET 0.000000 0.000000 0.000000 
		CHANNELS 3 Zrotation Xrotation Yrotation
		JOINT Neck
		{
			OFFSET 0.000000 0.445665 0.000000 
			CHANNELS 3 Zrotation Xrotation Yrotation
			End Site
			{
				OFFSET 0.000000 0.227535 0.000000 
			}
		}
		JOINT RightShoulder
		{
			OFFSET 0.019635 0.377685 0.194865 
			CHANNELS 3 Zrotation Xrotation Yrotation
			JOINT RightElbow
			{
				OFFSET 0.000000 -0.243375 0.000000 
				CHANNELS 2 Zrotation Yrotation
				JOINT RightWrist
				{
					OFFSET 0.000000 -0.264825 0.000000 
					CHANNELS 2 Zrotation Xrotation
					End Site
					{
						OFFSET 0.006600 -0.176220 0.000990 
					}
				}
			}
		}
		JOINT LeftShoulder
		{
			OFFSET 0.019635 0.377685 -0.194865 
			CHANNELS 3 Zrotation Xrotation Yrotation
			JOINT LeftElbow
			{
				OFFSET 0.000000 -0.243375 0.000000 
				CHANNELS 2 Zrotation Yrotation
				JOINT LeftWrist
				{
					OFFSET 0.000000 -0.264825 0.000000 
					CHANNELS 2 Zrotation Xrotation
					End Site
					{
						OFFSET 0.006600 -0.176220 -0.000990 
					}
				}
			}
		}
	}
	JOINT RightHip
	{
		OFFSET 0.052140 -0.069960 0.075570 
		CHANNELS 3 Zrotation Xrotation Yrotation
		JOINT RightKnee
		{
			OFFSET 0.000000 -0.402270 0.000000 
			CHANNELS 1 Zrotation
			JOINT RightAnkle
			{
				OFFSET 0.000000 -0.404085 0.000000 
				CHANNELS 3 Zrotation Xrotation Yrotation
				End Site
				{
					OFFSET 0.204105 -0.089430 0.008415 
				}
			}
		}
	}
	JOINT LeftHip
	{
		OFFSET 0.052140 -0.069960 -0.075570 
		CHANNELS 3 Zrotation Xrotation Yrotation
		JOINT LeftKnee
		{
			OFFSET 0.000000 -0.402270 0.000000 
			CHANNELS 1 Zrotation
			JOINT LeftAnkle
			{
				OFFSET 0.000000 -0.404085 0.000000 
				CHANNELS 3 Zrotation Xrotation Yrotation
				End Site
				{
					OFFSET 0.204105 -0.089430 -0.008415 
				}
			}
		}
	}
}
MOTION
Frames: 11
Frame Time: 0.02
-0.0001 -2e-05 0.00032 22.66472 -23.23085 -7.01133 43.14816 3.29157 -4.8709 -15.41802 -1.11779 -1.3474 40.82605 -100.22343 55.63246 6.76398 91.99484 8.5668 0.50684 42.96938 100.70906 -55.63099 6.33262 -89.49735 6.68174 0.19251 37.07297 -3.17404 -7.91348 -22.1547 -6.69332 -2.26452 -3.33893 41.35354 9.74191 3.83064 -27.46097 -6.85874 2.4265 3.41215
-0 -1e-05 0.00017 22.66154 -23.22542 -7.0154 43.14312 3.29889 -4.85492 -15.42616 -1.11746 -1.34798 40.92175 -100.20033 55.63246 6.7437 91.98248 8.59478 0.51283 43.08493 100.70143 -55.63099 6.32319 -89.55291 6.72171 0.2002 37.05195 -3.19939 -8.0339 -22.15447 -6.69161 -2.25338 -3.33293 41.3351 9.74758 3.86306 -27.46295 -6.85571 2.42062 3.41042
9e-05 -0 2e-05 22.65836 -23.22003 -7.01944 43.13807 3.30621 -4.83895 -15.43428 -1.11713 -1.34857 41.01707 -100.1773 55.63246 6.72352 91.97015 8.62266 0.51877 43.20044 100.69382 -55.63099 6.31379 -89.60829 6.76155 0.20786 37.03103 -3.22469 -8.15406 -22.15427 -6.68989 -2.24226 -3.32693 41.31675 9.7532 3.89526 -27.46495 -6.85268 2.41476 3.4087
0.00019 0 -0.00013 22.65518 -23.21462 -7.02349 43.13305 3.31351 -4.82301 -15.44239 -1.1168 -1.34915 41.11244 -100.15427 55.63245 6.70331 91.95782 8.65056 0.52474 43.31568 100.68621 -55.63099 6.30437 -89.66367 6.8014 0.21552 37.01007 -3.24997 -8.27412 -22.15405 -6.68818 -2.23115 -3.32095 41.29837 9.75883 3.92754 -27.46693 -6.84966 2.40891 3.40698
0.00028 1e-05 -0.00029 22.65203 -23.20918 -7.02758 43.12802 3.32079 -4.80708 -15.45054 -1.11645 -1.34973 41.20829 -100.13115 55.63245 6.68299 91.94547 8.67854 0.53076 43.43083 100.67858 -55.63099 6.29495 -89.71925 6.84138 0.22324 36.98901 -3.27527 -8.39441 -22.15378 -6.68647 -2.22002 -3.31495 41.27992 9.76455 3.96012 -27.4689 -6.84661 2.40301 3.40524
0.00037 2e-05 -0.00044 22.64879 -23.20389 -7.03152 43.12294 3.32821 -4.79104 -15.45859 -1.11618 -1.35032 41.30254 -100.10832 55.63244 6.66311 91.93318 8.7062 0.53655 43.54708 100.67101 -55.63099 6.28561 -89.7742 6.8809 0.23077 36.96838 -3.30059 -8.51428 -22.15371 -6.68477 -2.20892 -3.30897 41.26178 9.76996 3.99154 -27.47094 -6.84364 2.39724 3.40356
0.00047 3e-05 -0.00059 22.64568 -23.19829 -7.03574 43.11798 3.33535 -4.77521 -15.46683 -1.11576 -1.3509 41.39972 -100.08494 55.63244 6.64233 91.92079 8.73451 0.54278 43.66103 100.66332 -55.63099 6.27605 -89.83033 6.92136 0.23865 36.94688 -3.32587 -8.63484 -22.15325 -6.68304 -2.19778 -3.30295 41.24298 9.77593 4.02514 -27.47284 -6.84053 2.39125 3.40178
0.00056 3e-05 -0.00074 22.64254 -23.19301 -7.03973 43.1129 3.34273 -4.75924 -15.47489 -1.11546 -1.35149 41.49455 -100.06207 55.63244 6.62248 91.9085 8.76219 0.54862 43.77701 100.65577 -55.63099 6.26681 -89.88541 6.96083 0.24623 36.92623 -3.35113 -8.7548 -22.15316 -6.68134 -2.18668 -3.29698 41.22487 9.7815 4.05698 -27.47487 -6.83755 2.38542 3.40007
0.00066 4e-05 -0.00089 22.63899 -23.18798 -7.04332 43.10772 3.35048 -4.74288 -15.48274 -1.11538 -1.35207 41.58511 -100.03977 55.63244 6.60338 91.89627 8.78923 0.55395 43.89593 100.64828 -55.63099 6.25748 -89.93906 6.99961 0.25335 36.90644 -3.37659 -8.87395 -22.15348 -6.67966 -2.17559 -3.29103 41.20731 9.78612 4.08567 -27.47706 -6.83471 2.37994 3.39853
0.00076 5e-05 -0.00105 22.6367 -23.1811 -7.04887 43.10326 3.35632 -4.7281 -15.49185 -1.11425 -1.35266 41.69605 -100.01406 55.63243 6.5788 91.88349 8.82032 0.56209 43.99934 100.6401 -55.63099 6.24721 -90.00051 7.0439 0.26286 36.88117 -3.40158 -8.99754 -22.15129 -6.67784 -2.16433 -3.28485 41.18571 9.79483 4.12947 -27.47835 -6.831 2.3729 3.39625
0.00083 6e-05 -0.00118 22.63244 -23.17837 -7.05049 43.09716 3.36607 -4.71043 -15.49825 -1.11521 -1.35323 41.76668 -99.99562 55.63243 6.56651 91.872 8.84261 0.56441 44.13455 100.63359 -55.631 6.23988 -90.04579 7.07557 0.26748 36.86778 -3.42713 -9.11188 -22.15452 -6.67632 -2.15351 -3.2792 41.1732 9.79578 4.14332 -27.48151 -6.82914 2.36888 3.39538
